<svg xmlns="http://www.w3.org/2000/svg" xmlns:xlink="http://www.w3.org/1999/xlink" version="1.1" x="0px" y="0px" viewBox="0 0 512 640" style="enable-background:new 0 0 512 512;" xml:space="preserve"><path d="M364.3691406,225.6762695v-72.8798828L300.4138184,67.980957h14.8566895V12.5883789H196.7304688V67.980957h15.1953125  l-64.2949219,84.8066406v72.8886719c0,12.6064453,6.2529297,23.7792969,15.8193359,30.5810547  c-9.4921875,5.9345703-15.8193359,16.4824219-15.8193359,28.4785156c0,11.4013672,5.7148438,21.4921875,14.4306641,27.5605469  c-8.7158203,6.0683594-14.4306641,16.1601562-14.4306641,27.5615234c0,11.9960938,6.3271484,22.5429688,15.8193359,28.4775391  c-9.5664062,6.8017578-15.8193359,17.9755859-15.8193359,30.5820312v62.9951172  c0,20.6767578,16.8212891,37.4990234,37.4980469,37.4990234h141.7412109c20.6767578,0,37.4980469-16.8222656,37.4980469-37.4990234  v-62.9951172c0-12.6064453-6.2529297-23.7792969-15.8193359-30.5820312  c9.4921875-5.9345703,15.8193359-16.4814453,15.8193359-28.4775391c0-11.4013672-5.7148438-21.4931641-14.4296875-27.5615234  c8.7148438-6.0683594,14.4296875-16.1591797,14.4296875-27.5605469c0-11.9960938-6.3271484-22.5429688-15.8193359-28.4785156  C358.1162109,249.4555664,364.3691406,238.2827148,364.3691406,225.6762695z M208.7304688,55.980957V24.5883789h94.5400391  V55.980957h-11.9052734h-70.3417969H208.7304688z M352.3681641,398.9174805v62.9951172  c0,14.0605469-11.4384766,25.4990234-25.4980469,25.4990234H185.1289062c-14.0595703,0-25.4980469-11.4384766-25.4980469-25.4990234  v-62.9951172c0-12.9362793,9.6848145-23.6452637,22.1826172-25.2763672h148.3720703  C342.6833496,375.2722168,352.3681641,385.9812012,352.3681641,398.9174805z M352.3681641,339.8579102  c0,11.8886719-9.671875,21.5605469-21.5605469,21.5605469h-3.9375v0.2226562H185.1289062v-0.2226562h-3.9365234  c-11.8886719,0-21.5615234-9.671875-21.5615234-21.5605469s9.6728516-21.5615234,21.5615234-21.5615234v0.1113281h149.6152344  v-0.1113281C342.6962891,318.2963867,352.3681641,327.9692383,352.3681641,339.8579102z M352.3681641,284.7358398  c0,11.8886719-9.671875,21.5605469-21.5605469,21.5605469v0.1113281H181.1923828v-0.1113281  c-11.8886719,0-21.5615234-9.671875-21.5615234-21.5605469s9.6728516-21.5615234,21.5615234-21.5615234h3.9365234h141.7412109  h3.9375C342.6962891,263.1743164,352.3681641,272.847168,352.3681641,284.7358398z M352.3691406,225.6762695  c0,14.0595703-11.4384766,25.4980469-25.4990234,25.4980469H185.1289062c-14.0595703,0-25.4980469-11.4384766-25.4980469-25.4980469  v-68.8535156L226.984375,67.980957h58.4003906l66.984375,88.8330078V225.6762695z"/><text x="0" y="527" fill="#000000" font-size="5px" font-weight="bold" font-family="'Helvetica Neue', Helvetica, Arial-Unicode, Arial, Sans-serif">Created by chappara</text><text x="0" y="532" fill="#000000" font-size="5px" font-weight="bold" font-family="'Helvetica Neue', Helvetica, Arial-Unicode, Arial, Sans-serif">from the Noun Project</text></svg>